# xmcd
#
# Track frame offsets:
#	150
#	16950
#	29325
#	44775
#	62550
#	77325
#	91500
#	105075
#	119550
#	132825
#	149025
#	170850
#	183825
#	197400
#	215625
#
# Disc length: 3038 seconds
#
# Revision: 1
# Processed by: cddbd v1.5.2PL0 Copyright (c) Steve Scherf et al.
# Submitted via: audiograbber 1.83.01
#
DISCID=cb0bdc0f
DTITLE=Various Artist - CDX 56 May 1993
DYEAR=1993
DGENRE=Country
TTITLE0=Clint Black and Wynonna - A Bad Goodbye
TTITLE1=Marion Knight - A Better Love Next Time
TTITLE2=John Berry - A Mind Of Her Own
TTITLE3=Joy White - Cold Day In July
TTITLE4=Carlene Carter - Every Little Thing
TTITLE5=Dean Dillon - Hot, Country And Single
TTITLE6=Mark Chesnutt - It Sure Is Monday
TTITLE7=Reba McEntire - It's Your Call
TTITLE8=Randy Huston - Not Just Along For The Ride
TTITLE9=Doug Supernaw - Reno
TTITLE10=Garth Brooks - That Summer
TTITLE11=Restless Heart - We Got The Love
TTITLE12=Brooks and Dunn - We'll Burn That Bridge
TTITLE13=Little Texas - What Might Have Been
TTITLE14=Reddmann - Love Her To Death
EXTD=
EXTT0=
EXTT1=
EXTT2=
EXTT3=
EXTT4=
EXTT5=
EXTT6=
EXTT7=
EXTT8=
EXTT9=
EXTT10=
EXTT11=
EXTT12=
EXTT13=
EXTT14=
PLAYORDER=
